<?xml version="1.0" encoding="UTF-8"?>
<svg id="Layer_1" data-name="Layer 1" xmlns="http://www.w3.org/2000/svg" viewBox="0 0 197.66 67.25">
  <defs>
    <style>
      .cls-1 {
        fill: #af125a;
      }
    </style>
  </defs>
  <path class="cls-1" d="M0,16.85h9.36v4.32c2.95-3.24,7.06-5.18,11.95-5.18,10.22,0,17.86,8.28,17.86,19.23s-7.63,19.23-17.86,19.23c-4.9,0-9-1.94-11.95-5.18v18H0V16.85ZM29.52,35.21c0-5.76-4.25-10.15-10.08-10.15s-10.08,4.39-10.08,10.15,4.32,10.15,10.08,10.15,10.08-4.39,10.08-10.15Z"/>
  <path class="cls-1" d="M43.99,35.21c0-10.94,7.71-19.23,17.93-19.23,4.9,0,9,1.94,11.95,5.18v-4.32h9.36v24.55c0,1.94,1.08,3.1,3.1,3.1h.72v9.07h-2.66c-5.04,0-8.28-1.8-9.72-5.33-2.95,3.82-7.42,6.19-12.75,6.19-10.22,0-17.93-8.28-17.93-19.23ZM73.87,35.21c0-5.76-4.32-10.15-10.15-10.15s-10.08,4.39-10.08,10.15,4.32,10.15,10.08,10.15,10.15-4.39,10.15-10.15Z"/>
  <path class="cls-1" d="M91.08,46.08c2.38-1.01,4.61-2.23,6.62-3.74-3.82-5.62-5.98-13.1-5.98-21.53,0-12.82,5.76-19.95,14.4-19.95s13.68,6.48,13.68,17.57c0,8.64-3.24,17.14-8.86,23.76,2.3,1.51,4.9,2.3,7.78,2.3h2.23v9.07h-2.74c-5.54,0-10.44-1.73-14.47-4.75-2.74,1.94-5.76,3.6-9.07,4.75l-3.6-7.49ZM104.76,35.14c3.46-4.9,5.4-10.66,5.4-16.71,0-5.54-1.58-8.5-4.18-8.5-2.81,0-4.61,3.24-4.61,10.22,0,5.69,1.22,10.87,3.38,14.98Z"/>
  <path class="cls-1" d="M150.66,46.08c-2.38-1.01-4.61-2.23-6.62-3.74,3.82-5.62,5.98-13.1,5.98-21.53,0-12.82-5.76-19.95-14.4-19.95s-13.68,6.48-13.68,17.57c0,8.64,3.24,17.14,8.86,23.76-2.3,1.51-4.9,2.3-7.78,2.3h-2.23v9.07h2.74c5.54,0,10.44-1.73,14.47-4.75,2.74,1.94,5.76,3.6,9.07,4.75l3.6-7.49ZM136.97,35.14c-3.46-4.9-5.4-10.66-5.4-16.71,0-5.54,1.58-8.5,4.18-8.5,2.81,0,4.61,3.24,4.61,10.22,0,5.69-1.22,10.87-3.38,14.98Z"/>
  <path class="cls-1" d="M156.69,5.83c0-3.31,2.59-5.83,5.9-5.83s5.9,2.52,5.9,5.83-2.59,5.83-5.9,5.83-5.9-2.52-5.9-5.83ZM157.92,16.85h9.36v36.72h-9.36V16.85Z"/>
  <path class="cls-1" d="M179.8,41.98v-16.56h-5.83v-8.57h3.31c1.94,0,3.02-1.01,3.02-2.95v-6.84h8.86v9.79h8.5v8.57h-8.5v14.98c0,2.88,1.8,4.61,4.82,4.61h3.67v8.57h-5.04c-8.42,0-12.82-4.03-12.82-11.59Z"/>
</svg>